<svg xmlns="http://www.w3.org/2000/svg" viewBox="0 0 54.387 54.386">
  <path fill="#BA2326" d="M54.387 27.193c0 15.02-12.175 27.193-27.193 27.193C12.174 54.386 0 42.212 0 27.193 0 12.175 12.175 0 27.194 0c15.018 0 27.193 12.175 27.193 27.193"/>
  <path fill="#FFF" d="M42.374 23.46h-30.68v-4.842c0-2.112 1.798-3.83 4-3.83h22.68c2.204 0 4 1.718 4 3.83v4.842zm-24.357-3.236c1.037 0 1.875-.8 1.875-1.793s-.838-1.794-1.875-1.794c-1.035 0-1.874.803-1.874 1.795s.84 1.794 1.874 1.794m17.573 0c1.035 0 1.875-.8 1.875-1.793s-.84-1.794-1.875-1.794c-1.036 0-1.876.803-1.876 1.795s.84 1.794 1.876 1.794M11.693 25.307V37.7c0 2.112 1.8 3.832 4.002 3.832h22.678c2.205 0 4.002-1.72 4.002-3.832V25.307H11.693z"/>
  <path fill="#BA2326" d="M23.59 21.038c0 .703-.18 1.4-1.39 1.4-.892 0-1.26-.554-1.26-1.297v-.214h.74v.21c0 .457.13.722.58.722.476 0 .59-.277.59-.78v-2.78h.74v2.74zM25.62 18.3h.787l1.624 4.04h-.79l-.397-1.07H25.16l-.4 1.07H24l1.62-4.04zm-.26 2.433h1.288l-.633-1.736h-.017l-.64 1.736zM28.41 18.3h.777l1.93 2.978h.01v-2.98h.704v4.042h-.78l-1.92-2.97h-.017v2.97h-.704"/>
  <path fill="#FFF" d="M19.738 17.153c0 .608-.596 1.1-1.333 1.1h-.614c-.737 0-1.335-.492-1.335-1.1v-6.1c0-.608.598-1.1 1.336-1.1h.615c.737 0 1.333.492 1.333 1.1v6.1zM37.238 17.153c0 .608-.596 1.1-1.333 1.1h-.612c-.738 0-1.336-.492-1.336-1.1v-6.1c0-.608.598-1.1 1.336-1.1h.612c.737 0 1.333.492 1.333 1.1v6.1z"/>
  <path fill="#BA2326" d="M39.093 38.273H14.32V27.377h24.773v10.896zm-.668-10.256H14.988v9.614h23.438v-9.613z"/>
  <path fill="#BA2326" d="M24.362 28.017h.67v10.256h-.67zM29.05 28.017h.67v10.256h-.67zM33.736 28.017h.67v10.256h-.67z"/>
  <path fill="#BA2326" d="M14.32 31.222h24.773v.642H14.32zM14.32 34.427h24.773v.64H14.32z"/>
</svg>
