<svg xmlns="http://www.w3.org/2000/svg" viewBox="0 0 54.387 54.386">
  <path fill="#BA2326" d="M54.387 27.193c0 15.02-12.175 27.193-27.193 27.193C12.174 54.386 0 42.213 0 27.193 0 12.175 12.175 0 27.194 0c15.018 0 27.193 12.175 27.193 27.193"/>
  <path fill="#FFF" d="M32.936 12.465c-3.14 0-3.14-1.872-3.14-1.872-.003-1.248-1.014-2.26-2.262-2.26s-2.26 1.012-2.26 2.26c0 0 0 1.872-3.14 1.872-1.245 0-2.124.454-2.696 1.184h-3.41c-.662 0-1.2.537-1.2 1.2v26.314c0 .664.538 1.202 1.2 1.202h23.014c.664 0 1.2-.538 1.2-1.202V14.85c0-.662-.536-1.2-1.2-1.2h-3.41c-.572-.73-1.45-1.185-2.696-1.185m-5.403-2.82c.525 0 .95.424.95.95 0 .523-.425.948-.95.948-.525 0-.95-.425-.95-.95 0-.525.425-.948.95-.948m10.113 5.707v24.31H17.42V15.35h1.277c-.077.392-.115.81-.115 1.24h17.904c0-.43-.038-.848-.115-1.24h1.276z"/>
  <path fill="#FFF" d="M19.984 20.165h3.228v3.228h-3.228zM19.984 26.783h3.228v3.227h-3.228zM19.984 33.397h3.228v3.23h-3.228zM25.59 20.977h9.374v1.602H25.59zM25.59 27.595h9.374v1.6H25.59zM25.59 34.21h9.374v1.603H25.59z"/>
</svg>
