<svg xmlns="http://www.w3.org/2000/svg" viewBox="0 0 54.387 54.386">
  <path fill="#BA2326" d="M54.387 27.193c0 15.02-12.175 27.193-27.193 27.193S0 42.212 0 27.193C0 12.175 12.175 0 27.194 0s27.193 12.175 27.193 27.193"/>
  <path fill="#FFF" d="M21.957 12.333H15.13c-1.14 0-2.063 1.017-2.063 2.27v6.425h1.09v18.426c0 1.252.923 2.267 2.064 2.267h22.02c1.142 0 2.063-1.014 2.063-2.266V21.028h1.09v-6.424c0-1.254-.922-2.27-2.062-2.27h-8.798m-3.312 0h-3.164m13.838 26.12c0 .528-.392.958-.875.958H17.442c-.486 0-.876-.43-.876-.96V21.03h21.327v17.425z"/>
  <path fill="#FFF" d="M30.624 27.07h-3.022v-.502c0-.534-.034-.883-.104-1.048-.07-.164-.22-.247-.448-.247-.185 0-.323.07-.416.214-.092.142-.138.355-.138.64 0 .473.095.804.284.996.185.188.728.557 1.63 1.105.77.464 1.292.82 1.572 1.066.28.248.515.596.707 1.047.19.454.286 1.016.286 1.69 0 1.076-.26 1.922-.777 2.535-.52.612-1.298.993-2.335 1.138v1.137h-1.392v-1.174c-.81-.08-1.514-.39-2.118-.932-.603-.542-.904-1.484-.904-2.832v-.59h3.023v.738c0 .814.03 1.32.093 1.516.062.197.214.296.453.296.203 0 .355-.067.455-.206.1-.137.15-.34.15-.61 0-.677-.048-1.163-.143-1.454-.095-.293-.42-.61-.973-.955-.924-.577-1.55-1.004-1.883-1.274-.33-.272-.618-.653-.86-1.147-.242-.496-.362-1.053-.362-1.676 0-.903.255-1.612.767-2.125.51-.514 1.278-.83 2.3-.95V22.5h1.393v.965c.933.12 1.63.433 2.095.94s.695 1.205.695 2.098c0 .122-.01.312-.03.566"/>
</svg>
