<svg xmlns="http://www.w3.org/2000/svg" viewBox="0 0 54.387 54.386">
  <path fill="#BA2326" d="M54.387 27.193c0 15.02-12.175 27.193-27.193 27.193C12.174 54.386 0 42.212 0 27.193 0 12.175 12.175 0 27.194 0c15.018 0 27.193 12.175 27.193 27.193"/>
  <path fill="#FFF" d="M39.44 24.456c0 .208-.17.375-.378.375h-9.02c-.205 0-.373-.166-.373-.374 0-.21.167-.377.372-.377h9.02c.21-.002.377.167.377.376m0 1.825c0 .208-.17.38-.378.38h-9.02c-.205 0-.373-.172-.373-.38s.167-.374.372-.374h9.02c.21 0 .377.168.377.375m0 1.83c0 .21-.17.378-.378.378h-9.02c-.205 0-.373-.168-.373-.377 0-.206.167-.374.372-.374h9.02c.21 0 .377.168.377.375m0 1.83c0 .208-.17.378-.378.378h-9.02c-.205 0-.373-.17-.373-.377s.167-.374.372-.374h9.02c.21 0 .377.168.377.375m0 1.83c0 .206-.17.374-.378.374h-9.02c-.205 0-.373-.168-.373-.375s.167-.376.372-.376h9.02c.21 0 .377.168.377.375m0 1.826c0 .21-.17.377-.378.377h-9.02c-.205 0-.373-.168-.373-.377 0-.207.167-.375.372-.375h9.02c.21 0 .377.17.377.376m0 1.83c0 .208-.17.374-.378.374h-9.02c-.205 0-.373-.166-.373-.375 0-.208.167-.378.372-.378h9.02c.21 0 .377.17.377.378"/>
  <path fill="#FFF" d="M43.798 13.442c0-.375-.148-.745-.418-1.013-.268-.264-.635-.423-1.014-.423H13.923c-.377 0-.744.16-1.012.422-.264.267-.417.637-.417 1.012v21.265c.006 3.03 2.46 5.484 5.496 5.49h20.314c3.033-.006 5.49-2.46 5.496-5.49l-.002-21.265zM38.302 38.57H17.99c-2.13-.003-3.866-1.738-3.872-3.867V13.59l28.055.042.002 21.075c-.004 2.125-1.74 3.86-3.873 3.863"/>
  <path fill="#FFF" d="M19.266 15.626h1.743v3.06c0 .64-.058 1.127-.173 1.462-.113.334-.342.62-.687.852-.344.23-.783.348-1.32.348-.57 0-1.008-.076-1.32-.23-.313-.154-.554-.38-.723-.674-.17-.296-.272-.66-.3-1.094l1.66-.227c.002.247.023.432.064.553.042.118.112.218.208.292.067.048.16.07.285.07.194 0 .335-.07.427-.215.09-.143.136-.388.136-.73v-3.467zM21.95 18.443c0-.916.255-1.63.765-2.144.513-.51 1.225-.768 2.138-.768.936 0 1.658.252 2.164.754.506.503.76 1.207.76 2.113 0 .656-.112 1.195-.332 1.615-.22.42-.54.75-.96.982-.417.235-.94.35-1.564.35-.633 0-1.157-.1-1.573-.3-.416-.203-.753-.524-1.01-.96-.26-.44-.388-.986-.388-1.644m1.736.01c0 .567.106.976.317 1.224.21.247.498.372.862.372.374 0 .662-.122.867-.367.204-.243.307-.677.307-1.307 0-.53-.11-.916-.322-1.16-.215-.246-.503-.368-.87-.368-.35 0-.63.124-.843.37-.213.252-.32.66-.32 1.234M28.716 15.626h3.254c.542 0 .958.137 1.25.404.29.268.434.6.434.998 0 .332-.102.62-.31.857-.14.157-.34.282-.606.375.403.097.7.263.89.5.192.237.286.535.286.89 0 .294-.066.556-.2.79-.138.232-.322.416-.558.552-.146.083-.367.145-.66.183-.392.05-.65.076-.78.076h-3v-5.624zm1.754 2.208h.756c.27 0 .46-.046.564-.14.107-.093.16-.227.16-.406 0-.164-.053-.29-.16-.384-.105-.09-.29-.138-.553-.138h-.767v1.068zm0 2.21h.887c.3 0 .51-.054.633-.16s.184-.25.184-.428c0-.165-.06-.3-.182-.4-.123-.102-.334-.153-.64-.153h-.882v1.14zM34.52 19.39l1.655-.1c.035.267.108.472.22.612.177.228.435.342.767.342.248 0 .44-.058.573-.175.134-.117.2-.25.2-.406 0-.146-.062-.276-.19-.39-.128-.115-.425-.226-.89-.328-.764-.17-1.307-.4-1.63-.683-.33-.282-.492-.643-.492-1.084 0-.29.083-.565.25-.82.168-.26.42-.46.757-.608.336-.146.797-.22 1.383-.22.72 0 1.268.134 1.645.402.377.267.602.69.673 1.274l-1.637.097c-.045-.253-.135-.437-.275-.554-.14-.113-.332-.172-.576-.172-.203 0-.354.044-.457.13-.104.086-.154.19-.154.313 0 .09.044.17.128.243.082.074.277.144.584.207.76.163 1.303.33 1.63.495.33.17.57.376.72.625.148.247.225.525.225.833 0 .36-.1.692-.3.996-.2.304-.48.535-.836.692-.357.158-.81.236-1.353.236-.957 0-1.62-.184-1.988-.553-.37-.368-.58-.836-.63-1.404M21.814 35.793c-3.628 0-6.58-2.952-6.58-6.58s2.952-6.582 6.58-6.582c3.63 0 6.58 2.953 6.58 6.582s-2.95 6.58-6.58 6.58m0-11.25c-2.574 0-4.668 2.095-4.668 4.67s2.094 4.67 4.668 4.67 4.67-2.095 4.67-4.67-2.096-4.67-4.67-4.67"/>
  <path fill="#FFF" d="M13.2 40.417c-.886.885-2.267.942-3.083.127-.816-.817-.76-2.2.127-3.085l4.946-4.948c.887-.886 2.27-.944 3.085-.127.816.816.76 2.2-.127 3.085L13.2 40.417z"/>
</svg>
