<svg xmlns="http://www.w3.org/2000/svg" viewBox="0 0 54.388 54.386">
  <path fill="#FFF" d="M12.312 40.765h22.914v7.94H12.312z"/>
  <path fill="#BA2326" d="M54.388 27.193c0 15.02-12.176 27.193-27.193 27.193C12.175 54.386 0 42.213 0 27.193 0 12.175 12.175 0 27.195 0c15.017 0 27.193 12.175 27.193 27.193"/>
  <path fill="#FFF" d="M46.33 36.486V31.78c0-2.26-1.957-3.756-4.08-4.516l-2.538-.99c-.052-.507-.08-.973-.074-1.442 1.413-1.22 2.344-3.31 2.344-5.686 0-3.766-2.344-5.912-5.233-5.912-2.887 0-5.23 2.146-5.23 5.912 0 2.375.928 4.466 2.343 5.686 0 .464-.02.926-.068 1.426l-5.208.91c-.08-2.2-4.89-8.93-2.336-8.862.34-.954 0 .33 0-.792 0-4.11-2.556-6.453-5.71-6.453-3.152 0-5.705 2.343-5.705 6.454 0 2.59 1.01 4.876 2.553 6.208.003.503-.02 1.008-.074 1.555-1.854.623-2.633.82-3.723 1.215-2.235.815-4.454 1.99-4.454 4.46v5.534H46.33z"/>
  <path fill="#FFF" stroke="#B92426" d="M35.04 42.068V33.04c0-2.186-1.898-3.635-3.955-4.372l-2.456-.958c-.05-.49-.074-.943-.072-1.397 1.37-1.18 2.27-3.208 2.27-5.506 0-3.647-2.27-5.725-5.07-5.725-2.794 0-5.06 2.078-5.06 5.725 0 2.298.897 4.325 2.266 5.506 0 .448-.017.898-.065 1.382l-3.086 1.332s-2.82 1.13-2.902 3.55c-.105 3.063 0 9.49 0 9.49H35.04z"/>
</svg>
