<svg xmlns="http://www.w3.org/2000/svg" viewBox="0 0 54.387 54.386">
  <path fill="#BA2326" d="M54.387 27.193c0 15.02-12.175 27.193-27.193 27.193C12.174 54.386 0 42.213 0 27.193 0 12.175 12.175 0 27.194 0c15.018 0 27.193 12.175 27.193 27.193"/>
  <path fill="#FFF" d="M22.418 27.458c-.027-.718-.054-1.587-.054-2.457h-.016c-.196.765-.444 1.616-.675 2.316l-.727 2.332H19.89l-.638-2.304c-.195-.71-.39-1.562-.54-2.343h-.02c-.025.81-.06 1.73-.096 2.477l-.116 2.27h-1.25l.38-5.977h1.802l.584 1.995c.195.692.374 1.436.506 2.136h.035c.16-.69.364-1.48.568-2.144l.63-1.986h1.774l.318 5.976h-1.312l-.098-2.288zM24.875 23.77h1.35v5.976h-1.35zM27.394 29.746V23.77h1.58l1.24 2.19c.355.63.7 1.375.976 2.048h.017c-.08-.79-.106-1.596-.106-2.5v-1.74h1.242v5.978h-1.418l-1.277-2.305c-.355-.637-.755-1.41-1.038-2.11h-.036c.044.798.06 1.64.06 2.616v1.8h-1.24zM33.514 23.857c.496-.08 1.144-.133 1.818-.133 1.144 0 1.89.214 2.457.64.62.46 1.01 1.197 1.01 2.252 0 1.143-.417 1.932-.985 2.42-.63.524-1.597.772-2.766.772-.703 0-1.208-.044-1.536-.09v-5.86zm1.348 4.87c.115.025.31.025.47.025 1.233.01 2.04-.665 2.04-2.092 0-1.242-.727-1.898-1.9-1.898-.29 0-.495.026-.61.053v3.91z"/>
  <path fill="#FFF" d="M10.877 16.936v20.632c0 2.073 1.682 3.752 3.753 3.752h26.26c2.07 0 3.75-1.68 3.75-3.752V16.936c0-2.07-1.68-3.75-3.75-3.75H14.63c-2.07 0-3.753 1.68-3.753 3.75M39.95 36.63H15.566V17.873H39.95V36.63z"/>
</svg>
